<svg width="800" height="800" viewBox="0 0 800 800" fill="none" xmlns="http://www.w3.org/2000/svg">
<g clip-path="url(#clip0_7_9)">
<rect width="800" height="800" rx="60" fill="white"/>
<path fill-rule="evenodd" clip-rule="evenodd" d="M427.306 800H44.1538C19.7612 800 0 780.226 0 755.843V44.1536C0 19.7642 19.7643 0 44.1538 0H755.849C780.233 0 800 19.7642 800 44.1536V755.843C800 780.23 780.229 800 755.849 800H551.988V490.196H655.975L671.546 369.46H551.988V292.377C551.988 257.422 561.695 233.6 611.821 233.6L675.755 233.572V125.585C664.698 124.114 626.746 120.826 582.592 120.826C490.414 120.826 427.306 177.092 427.306 280.42V369.46H323.052V490.196H427.306V800Z" fill="#4460A0"/>
</g>
<defs>
<clipPath id="clip0_7_9">
<rect width="800" height="800" fill="white"/>
</clipPath>
</defs>
</svg>
