<svg width="800" height="800" viewBox="0 0 800 800" fill="none" xmlns="http://www.w3.org/2000/svg">
<rect width="800" height="800" rx="60" fill="white"/>
<path d="M681.667 681.668H563.133V496.001C563.133 451.734 562.333 394.734 501.467 394.734C439.733 394.734 430.267 443.001 430.267 492.734V681.668H311.733V299.868H425.533V352.068H427.133C450.333 312.468 493.533 288.734 539.4 290.401C659.533 290.401 681.733 369.401 681.733 472.268L681.667 681.601V681.668ZM178 247.668C159.792 247.58 142.353 240.313 129.471 227.443C116.59 214.574 109.305 197.143 109.2 178.934C109.2 141.201 140.267 110.134 178 110.134C215.733 110.134 246.733 141.201 246.8 178.934C246.8 216.668 215.733 247.668 178 247.668ZM237.267 681.668H118.6V299.868H237.267V681.668ZM740.667 0.000990882H59C43.5434 -0.0887844 28.6758 5.92497 17.6282 16.7354C6.58059 27.5458 0.245644 42.2794 0 57.7343V742.268C0.245644 757.723 6.58059 772.456 17.6282 783.267C28.6758 794.077 43.5434 800.091 59 800.001H740.733C756.226 800.126 771.141 794.133 782.239 783.322C793.337 772.511 799.719 757.758 800 742.268V57.6677C799.719 42.1895 793.332 27.4496 782.231 16.6602C771.129 5.87091 756.213 -0.0932168 740.733 0.0676527L740.667 0.000990882Z" fill="#0077B5"/>
</svg>
