<?xml version="1.0" encoding="UTF-8"?>
<svg id="_Слой_1" data-name="Слой 1" xmlns="http://www.w3.org/2000/svg" viewBox="0 0 1586 258">
  <defs>
    <style>
      .cls-1 {
        fill: #45db98;
      }

      .cls-2 {
        stroke: #fff;
        stroke-miterlimit: 10;
      }

      .cls-2, .cls-3 {
        fill: #fff;
      }
    </style>
  </defs>
  <path class="cls-3" d="M66.83,104.21s-1.3-23.01,36.09-23.01h125.9v23.01H66.83Z"/>
  <path class="cls-3" d="M228.81,192.58s1.3,23.01-36.09,23.01c-22.75,0-125.9,0-125.9,0v-23.01h161.99Z"/>
  <g>
    <path class="cls-2" d="M383.17,31.31c28.17,0,49.5,5.14,63.97,15.42,14.47,10.28,21.7,24.46,21.7,42.55s-7.38,31.84-22.13,42.98c-14.76,11.14-35.94,16.71-63.54,16.71h-101.95v65.97h-29.98V31.31h131.93ZM281.23,54.44v71.11h101.95c19.03,0,33.13-3.38,42.27-10.14,9.14-6.76,13.71-15.47,13.71-26.13s-4.52-19.37-13.57-25.56c-9.04-6.18-23.18-9.28-42.41-9.28h-101.95Z"/>
    <path class="cls-2" d="M487.98,214.93V86.42h28.84v32.55c8.18-21.7,24.46-32.55,48.83-32.55h40.27v21.99h-39.7c-8.76,0-16.14,1.24-22.13,3.71-6,2.47-10.71,5.67-14.14,9.57-3.43,3.9-6.09,9.38-8,16.42-1.91,7.05-3.1,13.95-3.57,20.71-.48,6.76-.71,15.47-.71,26.13v29.98h-29.7Z"/>
    <path class="cls-2" d="M634.19,102.7c17.71-12.75,41.22-19.13,70.54-19.13s52.92,6.43,70.82,19.28c17.89,12.85,26.84,28.8,26.84,47.83s-8.95,35.22-26.84,47.98c-17.9,12.76-41.51,19.13-70.82,19.13s-52.88-6.43-70.68-19.28c-17.8-12.85-26.7-28.79-26.7-47.83s8.95-35.03,26.84-47.98ZM637.33,150.68c0,12.76,6.14,23.52,18.42,32.27,12.28,8.76,28.6,13.13,48.97,13.13s36.74-4.38,49.12-13.13c12.37-8.75,18.56-19.51,18.56-32.27s-6.09-23.99-18.27-32.55c-12.38-8.57-28.84-12.85-49.41-12.85s-36.94,4.28-49.12,12.85c-12.19,8.57-18.28,19.42-18.28,32.55Z"/>
    <path class="cls-2" d="M842.94,101.56c17.13-11.99,40.36-17.99,69.68-17.99,14.85,0,28.03,1.48,39.55,4.43,11.52,2.95,20.23,6.57,26.13,10.85,5.9,4.28,10.71,8.57,14.42,12.85,3.71,4.28,6.04,7.85,7,10.71l1.43,4.57h-30.27c-.19-.57-.52-1.33-1-2.29-.48-.95-2.05-2.71-4.71-5.28s-5.9-4.81-9.71-6.71c-3.81-1.9-9.52-3.61-17.13-5.14-7.61-1.52-16.18-2.29-25.7-2.29-19.99,0-35.89,3.95-47.69,11.85-11.81,7.9-17.71,18.8-17.71,32.7s5.95,25.09,17.85,33.55c11.9,8.48,27.75,12.71,47.55,12.71,9.52,0,18.09-.9,25.7-2.71,7.61-1.81,13.33-4.04,17.13-6.71,3.81-2.67,7-5.33,9.57-8,2.57-2.66,4.24-4.86,5-6.57l.86-2.86h29.7l-.57,2.86c-.38,1.14-1.43,3.38-3.14,6.71-1.71,3.33-3.76,6.52-6.14,9.57-2.38,3.05-5.86,6.43-10.43,10.14s-9.81,6.95-15.7,9.71c-5.91,2.76-13.38,5.05-22.42,6.85-9.04,1.81-18.9,2.71-29.56,2.71-29.51,0-52.79-6.09-69.82-18.27-17.04-12.18-25.56-28.75-25.56-49.69s8.57-36.08,25.7-48.26Z"/>
    <path class="cls-2" d="M1012.28,150.96c0-19.8,8.04-35.98,24.13-48.55,16.09-12.56,38.12-18.85,66.11-18.85,31.03,0,53.92,7.14,68.68,21.42,14.75,14.28,22.13,29.98,22.13,47.12,0,2.48-.1,4.86-.28,7.14h-152.21c1.71,11.04,8.04,20.09,18.99,27.13,10.94,7.05,25.37,10.57,43.26,10.57,9.52,0,17.99-.71,25.42-2.14,7.42-1.43,13.09-3.23,16.99-5.42,3.9-2.19,7.14-4.33,9.71-6.43,2.57-2.09,4.23-3.81,5-5.14l1.14-2.29h29.7c-.38,1.14-.95,2.67-1.71,4.57-.76,1.91-3.19,5.29-7.28,10.14-4.1,4.86-9.04,9.14-14.85,12.85-5.81,3.71-14.38,7.09-25.7,10.14-11.33,3.04-24.23,4.57-38.7,4.57-27.23,0-49.12-6.04-65.68-18.13-16.56-12.09-24.84-28.32-24.84-48.69ZM1165.06,139.82c-.38-9.9-6.05-18.27-16.99-25.13-10.95-6.85-26.03-10.28-45.26-10.28s-32.94,3.48-43.41,10.42c-10.47,6.95-16.56,15.28-18.27,24.99h123.94Z"/>
    <path class="cls-2" d="M1235.02,173.52c0,.57.14,1.38.43,2.43.28,1.05,1.52,2.9,3.71,5.57,2.19,2.67,5.04,5,8.57,7,3.52,2,9,3.86,16.42,5.57,7.42,1.71,16.18,2.57,26.27,2.57,18.08,0,31.98-1.95,41.69-5.85,9.71-3.9,14.56-9.09,14.56-15.56v-.29c-.19-5.52-5.05-9.61-14.56-12.28-9.52-2.66-20.99-4.47-34.41-5.42-13.42-.95-26.89-2.19-40.41-3.71-13.52-1.52-24.99-4.71-34.41-9.57-9.42-4.86-14.14-11.57-14.14-20.13v-.57c0-11.42,7-20.89,20.99-28.41,13.99-7.52,33.84-11.28,59.54-11.28,14.09,0,26.46,1.29,37.12,3.86,10.66,2.57,18.61,5.38,23.85,8.42,5.23,3.05,9.57,6.81,12.99,11.28,3.43,4.48,5.38,7.52,5.85,9.14.47,1.62.9,3.38,1.29,5.29h-29.7c0-.57-.19-1.24-.57-2-.38-.76-1.62-2.18-3.71-4.28-2.1-2.09-4.81-3.95-8.14-5.57-3.33-1.62-8.42-3.09-15.28-4.43-6.85-1.33-14.76-2-23.7-2-14.85,0-26.94,1.81-36.27,5.42-9.33,3.62-13.99,8.19-13.99,13.71v.28c0,3.81,3.47,6.76,10.43,8.85,6.95,2.1,15.51,3.43,25.7,4,10.18.57,21.22,1.53,33.13,2.86,11.9,1.33,22.99,3.05,33.27,5.14,10.28,2.1,18.85,5.81,25.7,11.14,6.85,5.33,10.38,12.19,10.57,20.56v.57c0,12.38-7.19,22.47-21.56,30.27-14.38,7.81-36.41,11.71-66.11,11.71-14.85,0-27.89-1.53-39.12-4.57-11.23-3.04-19.61-6.52-25.13-10.42-5.53-3.9-10-8.23-13.42-12.99-3.43-4.76-5.48-8.38-6.14-10.85-.67-2.47-1-4.28-1-5.43h29.7Z"/>
    <path class="cls-2" d="M1419.21,173.52c0,.57.14,1.38.43,2.43.28,1.05,1.52,2.9,3.71,5.57,2.19,2.67,5.04,5,8.57,7,3.52,2,9,3.86,16.42,5.57,7.42,1.71,16.18,2.57,26.27,2.57,18.08,0,31.98-1.95,41.69-5.85,9.71-3.9,14.56-9.09,14.56-15.56v-.29c-.19-5.52-5.05-9.61-14.56-12.28-9.52-2.66-20.99-4.47-34.41-5.42-13.42-.95-26.89-2.19-40.41-3.71-13.52-1.52-24.99-4.71-34.41-9.57-9.42-4.86-14.14-11.57-14.14-20.13v-.57c0-11.42,7-20.89,20.99-28.41,13.99-7.52,33.84-11.28,59.54-11.28,14.09,0,26.46,1.29,37.12,3.86,10.66,2.57,18.61,5.38,23.85,8.42,5.23,3.05,9.57,6.81,12.99,11.28,3.43,4.48,5.38,7.52,5.85,9.14.47,1.62.9,3.38,1.29,5.29h-29.7c0-.57-.19-1.24-.57-2-.38-.76-1.62-2.18-3.71-4.28-2.1-2.09-4.81-3.95-8.14-5.57-3.33-1.62-8.42-3.09-15.28-4.43-6.85-1.33-14.76-2-23.7-2-14.85,0-26.94,1.81-36.27,5.42-9.33,3.62-13.99,8.19-13.99,13.71v.28c0,3.81,3.47,6.76,10.43,8.85,6.95,2.1,15.51,3.43,25.7,4,10.18.57,21.22,1.53,33.13,2.86,11.9,1.33,22.99,3.05,33.27,5.14,10.28,2.1,18.85,5.81,25.7,11.14,6.85,5.33,10.38,12.19,10.57,20.56v.57c0,12.38-7.19,22.47-21.56,30.27-14.38,7.81-36.41,11.71-66.11,11.71-14.85,0-27.89-1.53-39.12-4.57-11.23-3.04-19.61-6.52-25.13-10.42-5.53-3.9-10-8.23-13.42-12.99-3.43-4.76-5.48-8.38-6.14-10.85-.67-2.47-1-4.28-1-5.43h29.7Z"/>
  </g>
  <path class="cls-1" d="M66.83,118.44s0,20,15.72,30.05c0,0,12.85,9.95,35.71,9.95,2.01,0,53.09-.51,53.09-.51,0,0,19.16-.22,25.8,5.49,0,0,7.27,3.6,7.27,15.03h25.27s2.81-17.14-13.63-30.94c0,0-6.59-6.26-19.47-9.74-5.04-1.36-10.3-1.94-15.57-2.02-11.33-.17-28.73-.17-37.04-.17-2.86,0-31.74,1.61-40.47-1.9,0,0-12.07-1.78-11.4-15.24h-25.27Z"/>
</svg>